<svg width="10" height="14" viewBox="0 0 10 14" fill="none" xmlns="http://www.w3.org/2000/svg">
<path d="M6.21333 1.00001C6.21333 0.866381 6.13353 0.745665 6.01057 0.693319C5.88762 0.640972 5.74529 0.667114 5.64896 0.759736L4.46366 1.89945C2.69884 3.59639 1.20763 5.55653 0.0430706 7.7101C0.0156519 7.75852 0 7.81449 0 7.87411C0 8.0582 0.149238 8.20744 0.333333 8.20744H3.20667V13C3.20667 13.132 3.28456 13.2516 3.4053 13.3049C3.52604 13.3583 3.66689 13.3353 3.76447 13.2464L4.29481 12.7633C6.15129 11.0722 7.72678 9.09639 8.96216 6.91002L9.29021 6.32945C9.34852 6.22625 9.34764 6.09985 9.2879 5.99747C9.22815 5.89509 9.11854 5.83214 9 5.83214H6.21333V1.00001Z" fill="white"/>
</svg>
