<svg width="32" height="32" viewBox="0 0 32 32" fill="none" xmlns="http://www.w3.org/2000/svg">
<circle cx="16" cy="16" r="14" fill="#FE0F6D" stroke="#F5F4F6" stroke-width="4"/>
<path fill-rule="evenodd" clip-rule="evenodd" d="M10.5376 12.1376C11.1377 11.5377 11.9515 11.2007 12.8 11.2007C13.6486 11.2007 14.4623 11.5377 15.0624 12.1376L16 13.0744L16.9376 12.1376C17.2328 11.832 17.5859 11.5882 17.9763 11.4205C18.3667 11.2528 18.7866 11.1645 19.2115 11.1608C19.6364 11.1571 20.0578 11.2381 20.4511 11.399C20.8443 11.5599 21.2016 11.7975 21.5021 12.098C21.8025 12.3984 22.0402 12.7557 22.2011 13.149C22.362 13.5422 22.4429 13.9636 22.4392 14.3885C22.4355 14.8134 22.3473 15.2333 22.1795 15.6237C22.0118 16.0141 21.7681 16.3672 21.4624 16.6624L16 22.1256L10.5376 16.6624C9.93772 16.0623 9.60071 15.2486 9.60071 14.4C9.60071 13.5515 9.93772 12.7377 10.5376 12.1376Z" fill="#F5F4F6"/>
</svg>
